HIERARCHY
ROOT RootJoint
{
    OFFSET   0.000000   0.000000   0.000000
    CHANNELS 6 Xposition Yposition Zposition Xrotation Yrotation Zrotation
    JOINT pelvis_lowerback
    {
        OFFSET   0.000000   0.093605   0.000000
        CHANNELS 3 Xrotation Yrotation Zrotation
        JOINT lowerback_torso
        {
            OFFSET   0.000000   0.100000   0.000000
            CHANNELS 3 Xrotation Yrotation Zrotation
            JOINT torso_head
            {
                OFFSET   0.000000   0.282350   0.000000
                CHANNELS 3 Xrotation Yrotation Zrotation
                End Site
                {
                    OFFSET   0.000000   0.192650   0.000000
                }
            }
            JOINT rTorso_Clavicle
            {
                OFFSET  -0.001000   0.157500   0.000000
                CHANNELS 3 Xrotation Yrotation Zrotation
                JOINT rShoulder
                {
                    OFFSET  -0.117647   0.000000   0.000000
                    CHANNELS 3 Xrotation Yrotation Zrotation
                    JOINT rElbow
                    {
                        OFFSET  -0.245000   0.000000   0.000000
                        CHANNELS 3 Xrotation Yrotation Zrotation
                        JOINT rWrist
                        {
                            OFFSET  -0.240000   0.000000   0.000000
                            CHANNELS 3 Xrotation Yrotation Zrotation
                            End Site
                            {
                                OFFSET  -0.116353  -0.002500   0.000000
                            }
                        }
                    }
                }
            }
            JOINT lTorso_Clavicle
            {
                OFFSET   0.001000   0.157500   0.000000
                CHANNELS 3 Xrotation Yrotation Zrotation
                JOINT lShoulder
                {
                    OFFSET   0.117647   0.000000   0.000000
                    CHANNELS 3 Xrotation Yrotation Zrotation
                    JOINT lElbow
                    {
                        OFFSET   0.245000   0.000000   0.000000
                        CHANNELS 3 Xrotation Yrotation Zrotation
                        JOINT lWrist
                        {
                            OFFSET   0.240000   0.000000   0.000000
                            CHANNELS 3 Xrotation Yrotation Zrotation
                            End Site
                            {
                                OFFSET   0.116353  -0.002500   0.000000
                            }
                        }
                    }
                }
            }
        }
    }
    JOINT rHip
    {
        OFFSET  -0.100000  -0.051395   0.000000
        CHANNELS 3 Xrotation Yrotation Zrotation
        JOINT rKnee
        {
            OFFSET   0.000000  -0.410000   0.000000
            CHANNELS 3 Xrotation Yrotation Zrotation
            JOINT rAnkle
            {
                OFFSET   0.000000  -0.390000   0.000000
                CHANNELS 3 Xrotation Yrotation Zrotation
                JOINT rToeJoint
                {
                    OFFSET   0.000000  -0.050000   0.130000
                    CHANNELS 3 Xrotation Yrotation Zrotation
                    End Site
                    {
                        OFFSET  -0.010000   0.002000   0.060000
                    }
                }
            }
        }
    }
    JOINT lHip
    {
        OFFSET   0.100000  -0.051395   0.000000
        CHANNELS 3 Xrotation Yrotation Zrotation
        JOINT lKnee
        {
            OFFSET   0.000000  -0.410000   0.000000
            CHANNELS 3 Xrotation Yrotation Zrotation
            JOINT lAnkle
            {
                OFFSET   0.000000  -0.390000   0.000000
                CHANNELS 3 Xrotation Yrotation Zrotation
                JOINT lToeJoint
                {
                    OFFSET   0.000000  -0.050000   0.130000
                    CHANNELS 3 Xrotation Yrotation Zrotation
                    End Site
                    {
                        OFFSET   0.010000   0.002000   0.060000
                    }
                }
            }
        }
    }
}
MOTION
Frames: 17
Frame Time:   0.008333
 -2.608996   0.919079   3.934843 178.799377 -56.680912 175.863132   7.661281   0.127273  -0.160233  -0.823736  -0.135132   3.077717  -0.588169  -5.955018   5.780503   1.393114  -9.039194   3.889321  11.248372   6.611602  42.792564 179.990450  85.295643 -179.990793   2.136019   5.595498  -7.457265   2.009495  17.372361  -3.277911 -12.951089  17.419513 -28.860033   0.030149 -46.353118   0.029266  -3.053342  -2.873438  21.812025 -14.029095   6.810739  -2.555871  37.941773  -0.012098  -0.034346 -14.663148   4.922276   2.695405  -2.168884  -0.000587  -0.032414   3.059297   2.018037  11.846997   9.162024  -0.000898   0.003773  -6.836375   3.933561  -2.912913  -9.894600   0.000324   0.002338
 -2.608031   0.918993   3.936008 178.570160 -55.818232 175.495838   7.706950  -0.001735  -0.132481  -0.955857  -0.260711   3.169107  -0.726271  -6.032269   5.737618   1.473616  -9.227461   3.870641  11.367985   6.327575  43.207908 179.998991  85.235085 -179.998903   2.102148   5.562609  -7.383194   2.113385  17.296928  -3.227494 -12.397453  17.243012 -29.521087   0.034835 -46.968554   0.034026  -3.037957  -2.832058  21.651073 -14.461500   5.829633  -2.642398  38.274097  -0.011910  -0.032328 -14.782355   3.750873   2.650312  -1.924916  -0.000827  -0.032310   3.103057   2.725441  11.876162   8.822849  -0.000916   0.003634  -7.090864   4.540643  -2.766449  -9.012796  -0.000447   0.004759
 -2.606989   0.918838   3.937091 178.342805 -54.943164 175.142454   7.753788  -0.128533  -0.108868  -1.083637  -0.385912   3.256097  -0.860721  -6.105229   5.698242   1.552860  -9.411344   3.855699  11.484465   6.060439  43.601592 -179.994308  85.173882 179.994734   2.069694   5.549297  -7.320155   2.216393  17.225573  -3.195303 -11.870656  17.070558 -30.158179   0.038154 -47.553731   0.037419  -2.997665  -2.852168  21.427798 -14.890695   4.870277  -2.709719  38.562611  -0.011511  -0.030003 -14.895911   2.650890   2.605308  -1.705493  -0.001055  -0.031405   3.144733   3.418086  11.901390   8.475863  -0.000894   0.003609  -7.346784   5.137708  -2.611450  -8.169877  -0.001018   0.006326
 -2.605875   0.918617   3.938086 178.128451 -54.060859 174.821140   7.802848  -0.255317  -0.095243  -1.201254  -0.510762   3.331355  -0.986280  -6.173400   5.661817   1.629172  -9.585854   3.845743  11.596538   5.810937  43.971874 -179.989569  85.116700 179.990231   2.038698   5.539388  -7.259811   2.312067  17.154516  -3.174961 -11.378623  16.902633 -30.758946   0.040111 -48.100539   0.039477  -2.954371  -2.883389  21.187660 -15.305406   3.968661  -2.763334  38.823722  -0.010994  -0.027614 -15.002890   1.624228   2.561201  -1.505470  -0.001244  -0.029958   3.186087   4.069863  11.919503   8.138736  -0.000808   0.003694  -7.598258   5.699642  -2.460886  -7.386416  -0.001348   0.006882
 -2.604697   0.918338   3.938994 177.928040 -53.171069 174.534029   7.852773  -0.380120  -0.091480  -1.308917  -0.633471   3.393923  -1.103033  -6.237059   5.627223   1.701953  -9.750563   3.838883  11.703717   5.578055  44.319087 -179.986371  85.063699 179.987186   2.008788   5.528347  -7.200347   2.400524  17.084465  -3.162526 -10.920153  16.739774 -31.322933   0.040953 -48.610918   0.040455  -2.912498  -2.914691  20.944422 -15.701788   3.125420  -2.807164  39.062463  -0.010411  -0.025274 -15.103412   0.666227   2.518146  -1.322369  -0.001392  -0.028191   3.227840   4.679042  11.929630   7.816246  -0.000676   0.003852  -7.844398   6.224391  -2.316892  -6.662278  -0.001510   0.006681
 -2.603464   0.918007   3.939815 177.739882 -52.273607 174.279018   7.902035  -0.501365  -0.096288  -1.408036  -0.752498   3.444803  -1.211669  -6.296496   5.594113   1.770873  -9.905710   3.833775  11.805700   5.360664  44.644051 -179.984333  85.014550 179.985240   1.979929   5.515796  -7.142264   2.482494  17.016521  -3.155792 -10.493118  16.582731 -31.851221   0.040909 -49.087170   0.040580  -2.872686  -2.944165  20.703215 -16.078242   2.337252  -2.843221  39.281536  -0.009794  -0.023041 -15.197787  -0.227698   2.476318  -1.154528  -0.001498  -0.026255   3.270194   5.247554  11.932287   7.509382  -0.000514   0.004051  -8.084591   6.713531  -2.179631  -5.994010  -0.001570   0.005975
 -2.602179   0.917632   3.940547 177.561752 -51.368956 174.053070   7.949457  -0.618027  -0.108162  -1.500017  -0.866792   3.485473  -1.312896  -6.351993   5.562399   1.835755 -10.051641   3.829623  11.902317   5.157745  44.947853 -179.983156  84.968874 179.984111   1.952158   5.502329  -7.086377   2.558681  16.951502  -3.153312 -10.095331  16.432089 -32.345384   0.040178 -49.531491   0.040044  -2.834980  -2.971425  20.466699 -16.434033   1.600568  -2.872805  39.483048  -0.009166  -0.020944 -15.286348  -1.061838   2.435855  -1.000581  -0.001565  -0.024255   3.312978   5.777818  11.928418   7.217990  -0.000337   0.004265  -8.318115   7.169225  -2.048859  -5.377893  -0.001572   0.004963
 -2.601000   0.917045   3.941224 177.398980 -50.439153 173.786369   7.984600  -0.724851  -0.034060  -1.583437  -0.967561   3.532679  -1.449825  -6.429259   5.519986   1.877886 -10.208688   3.729146  11.966901   4.914207  45.305719 -179.970805  84.811232 179.972363   1.888267   5.425507  -6.950844   2.680814  16.934394  -3.062582  -9.518004  16.229130 -33.029496   0.043065 -50.121236   0.043450  -2.810831  -2.913875  20.248901 -16.743080   0.482737  -2.919630  39.488804  -0.007380  -0.016845 -15.399598  -2.194328   2.330625  -0.853355  -0.001635  -0.023378   3.406771   6.436487  11.939953   6.835838  -0.000310   0.004481  -8.669045   7.846036  -1.910838  -4.504710  -0.001585   0.006580
 -2.599766   0.916325   3.941810 177.233167 -49.490482 173.529588   8.012906  -0.830952   0.028025  -1.668830  -1.067252   3.579710  -1.580988  -6.502332   5.484732   1.911951 -10.360647   3.626853  12.023385   4.685854  45.639639 -179.961382  84.652517 179.963390   1.831097   5.402190  -6.847268   2.800402  16.918670  -2.980858  -8.973574  16.030535 -33.676128   0.044783 -50.680091   0.045605  -2.768906  -2.902443  19.982910 -17.051731  -0.604570  -2.963337  39.459031  -0.005663  -0.013017 -15.508807  -3.257066   2.229874  -0.722352  -0.001662  -0.022143   3.507665   7.087223  11.946817   6.439069  -0.000240   0.004785  -9.058400   8.508504  -1.766818  -3.686924  -0.001516   0.007414
 -2.598463   0.915515   3.942299 177.072330 -48.535245 173.298300   8.039769  -0.939061   0.073377  -1.752089  -1.167940   3.617625  -1.704150  -6.570854   5.452528   1.941746 -10.503473   3.532119  12.075377   4.472855  45.951792 -179.955348  84.502779 179.957641   1.778108   5.396501  -6.760714   2.910422  16.899232  -2.907669  -8.468314  15.836847 -34.279428   0.045412 -51.202443   0.046579  -2.724339  -2.902472  19.711949 -17.353455  -1.624035  -3.005990  39.419135  -0.004219  -0.009817 -15.612373  -4.249053   2.133883  -0.602142  -0.001651  -0.020735   3.611281   7.700657  11.946987   6.049781  -0.000114   0.005140  -9.459970   9.130700  -1.627307  -2.937953  -0.001374   0.007372
 -2.597092   0.914645   3.942686 176.918474 -47.576593 173.094052   8.065573  -1.047534   0.104333  -1.831636  -1.268695   3.645285  -1.819433  -6.634991   5.421782   1.969073 -10.637447   3.445534  12.124440   4.274185  46.243983 -179.951995  84.362971 179.954445   1.727744   5.394416  -6.682192   3.011076  16.876282  -2.842547  -7.999791  15.648562 -34.842460   0.045187 -51.690334   0.046627  -2.680291  -2.905885  19.444658 -17.644468  -2.575549  -3.047802  39.375358  -0.003047  -0.007220 -15.710276  -5.174784   2.042508  -0.491410  -0.001612  -0.019247   3.716144   8.274386  11.941511   5.674501   0.000052   0.005504  -9.861685   9.711006  -1.492808  -2.251817  -0.001220   0.006731
 -2.595658   0.913735   3.942968 176.771191 -46.615659 172.914864   8.089836  -1.154807   0.123566  -1.907344  -1.368234   3.663695  -1.927282  -6.694963   5.392165   1.994673 -10.763263   3.366315  12.171178   4.088755  46.517452 -179.950623  84.232717 179.953134   1.679508   5.392087  -6.608269   3.103411  16.851033  -2.785009  -7.564977  15.466542 -35.368183   0.044304 -52.145926   0.045960  -2.637446  -2.910757  19.182654 -17.922919  -3.463193  -3.088324  39.330168  -0.002110  -0.005142 -15.802716  -6.038654   1.955657  -0.389409  -0.001551  -0.017740   3.821211   8.810240  11.932110   5.315465   0.000239   0.005847 -10.256589  10.251598  -1.362682  -1.623094  -0.001087   0.005729
 -2.594160   0.912800   3.943143 176.629330 -45.653280 172.758122   8.112054  -1.259717   0.133387  -1.979500  -1.465475   3.674251  -2.028196  -6.751017   5.363651   2.018814 -10.881528   3.293530  12.215774   3.915585  46.773273 -179.950672  84.111382 179.953177   1.633232   5.388789  -6.537903   3.188452  16.824662  -2.734347  -7.161083  15.291527 -35.859112   0.042921 -52.571248   0.044754  -2.596064  -2.916203  18.926725 -18.187843  -4.291280  -3.127293  39.284944  -0.001373  -0.003499 -15.889930  -6.844791   1.873220  -0.295503  -0.001474  -0.016256   3.925613   9.310590  11.920403   4.973431   0.000434   0.006151 -10.640355  10.755126  -1.236442  -1.046917  -0.000992   0.004541
 -2.592741   0.911848   3.943227 176.452643 -44.642593 172.563735   8.082321  -1.347221   0.195868  -2.058208  -1.553478   3.666644  -2.151901  -6.831179   5.306065   2.004247 -11.024940   3.181215  12.258057   3.719299  47.076436 -179.940969  83.883239 179.943998   1.575903   5.315873  -6.395731   3.315160  16.859168  -2.635692  -6.641772  15.053435 -36.488603   0.043572 -53.053711   0.045649  -2.546041  -2.871604  18.676879 -18.427626  -5.468104  -3.196425  38.976316   0.001543   0.002316 -15.975799  -7.938055   1.709218  -0.260764  -0.001282  -0.013968   3.982039   9.976697  11.879171   4.634739   0.000434   0.006036 -11.038415  11.492994  -1.087505  -0.624561  -0.000858   0.004930
 -2.591268   0.910872   3.943173 176.285828 -43.592107 172.395294   8.045200  -1.427123   0.241521  -2.143068  -1.633591   3.652691  -2.271105  -6.907175   5.252820   1.986526 -11.162905   3.076127  12.294340   3.538119  47.365404 -179.934046  83.657619 179.937463   1.525296   5.303034  -6.276081   3.442746  16.898854  -2.554374  -6.147410  14.829001 -37.087844   0.043551 -53.507157   0.045768  -2.491427  -2.843423  18.385596 -18.663388  -6.610338  -3.250089  38.638636   0.004106   0.007468 -16.060775  -8.963583   1.554060  -0.231512  -0.001116  -0.011968   4.044009  10.640016  11.829893   4.311662   0.000483   0.006004 -11.429609  12.213436  -0.922625  -0.239672  -0.000804   0.004931
 -2.589925   0.910662   3.942684 176.220103 -42.368145 172.438511   8.009311  -1.456881   0.143573  -2.226346  -1.671854   3.589110  -2.378642  -6.976182   5.202598   1.978597 -11.281988   3.050127  12.335741   3.380951  47.663009 -179.930646  83.458408 179.934367   1.476731   5.266853  -6.106711   3.571725  16.954134  -2.523852  -5.677587  14.631260 -37.651359   0.042916 -53.913590   0.044944  -2.454831  -2.765340  18.106013 -18.850558  -7.653437  -3.363676  38.288210   0.006447   0.012090 -16.141885  -9.920731   1.406970  -0.191783  -0.001027  -0.010667   4.136452  11.231711  11.676150   4.188473   0.000504   0.005492 -11.371639  12.852545  -0.828364   0.099462  -0.000920   0.003917
 -2.588634   0.910436   3.941975 176.160823 -41.133446 172.433070   7.952512  -1.498918   0.132709  -2.311830  -1.711202   3.525784  -2.482783  -7.041814   5.148713   1.966625 -11.398638   2.976741  12.371942   3.230235  47.926497 -179.928103  83.261094 179.931984   1.430537   5.264363  -5.959817   3.701594  17.012928  -2.499949  -5.227070  14.446191 -38.197156   0.041801 -54.297332   0.043724  -2.423549  -2.682870  17.798135 -19.022326  -8.659572  -3.396440  37.978397   0.007869   0.014976 -16.220622 -10.813800   1.269430  -0.165408  -0.000909  -0.009234   4.223416  11.833562  11.585094   4.097309   0.000501   0.004906 -11.368423  13.500362  -0.701510   0.425140  -0.001119   0.003116
